<svg width="137" height="151" viewBox="0 0 137 151" fill="none" xmlns="http://www.w3.org/2000/svg">
<path fill-rule="evenodd" clip-rule="evenodd" d="M61.5353 89.9018C62.98 87.3995 65.9671 86.2336 68.7252 87.0959C73.8414 88.6954 79.8299 89.7754 85.8425 89.5082C95.3626 89.0854 105.225 85.2384 111.437 74.4777C116.929 64.967 117.457 55.6818 114.576 47.5592C111.731 39.5345 105.661 32.9123 98.386 28.3233C91.5018 23.9805 82.6484 21.0903 74.0284 21.0568C65.5096 21.0235 57.4975 23.7517 51.4648 30.3094C50.3106 31.5645 50.392 33.5174 51.6469 34.6719C52.9017 35.8262 54.8549 35.7447 56.0092 34.49C65.0361 24.6771 81.9613 25.2628 95.0914 33.5456C101.477 37.5738 106.475 43.1888 108.757 49.623C111.004 55.9602 110.722 63.3681 106.09 71.3904C101.188 79.8805 93.5522 82.985 85.5683 83.3397C77.4834 83.6989 69.3004 81.1907 64.1904 78.6979C62.7332 77.987 60.974 78.5246 60.1632 79.9288L51.9478 94.1584C51.0952 95.6351 51.6011 97.5232 53.0778 98.3758C54.5545 99.2284 56.4427 98.7224 57.2952 97.2457L61.5353 89.9018ZM56.6807 104.732C59.1051 104.179 61.3012 102.657 62.6427 100.333L66.8827 92.9892C72.5082 94.7483 79.2248 95.9831 86.1165 95.6769C97.1737 95.1858 109.262 90.5957 116.785 77.5651C123.135 66.5659 123.909 55.4032 120.396 45.4956C116.986 35.8797 109.844 28.2505 101.68 23.1008C86.1534 13.306 61.7856 9.96951 46.9206 26.129C43.4574 29.8937 43.7017 35.753 47.4664 39.2163C51.2312 42.6794 57.0905 42.4349 60.5536 38.6701C66.7501 31.9342 80.0159 31.3362 91.797 38.7682C97.288 42.2318 101.218 46.8379 102.937 51.6864C104.553 56.243 104.513 61.7732 100.743 68.303C97.1338 74.5536 91.6978 76.8867 85.2945 77.1711C78.4975 77.4731 71.3454 75.3177 66.8979 73.1482C62.5256 71.0153 57.2482 72.6285 54.8158 76.8415L46.6003 91.071C45.0513 93.7541 44.9972 96.89 46.1795 99.5141C46.9494 101.223 48.2435 102.715 49.9905 103.723C50.4461 103.986 50.9145 104.206 51.3914 104.384C53.1198 105.03 54.9581 105.126 56.6807 104.732ZM53.9626 111.128C52.9353 109.546 51.5289 108.177 49.7835 107.169C49.3309 106.908 48.8684 106.678 48.399 106.48C46.5634 105.705 44.6202 105.407 42.7242 105.545C38.779 105.832 35.0408 108.005 32.9139 111.689C29.5038 117.596 31.5276 125.149 37.4341 128.559C43.3406 131.969 50.8936 129.945 54.3037 124.039C56.7063 119.877 56.4118 114.899 53.9626 111.128ZM46.6962 112.517C43.7428 110.811 39.9665 111.823 38.2614 114.777C36.5564 117.73 37.5681 121.506 40.5215 123.211C43.4749 124.917 47.2513 123.904 48.9563 120.951C50.6614 117.998 49.6496 114.222 46.6962 112.517Z" fill="white"/>
</svg>
